<svg width="60" height="61" viewBox="0 0 60 61" fill="none" xmlns="http://www.w3.org/2000/svg">
<path d="M12.5 14.085C12.5 11.7644 13.4219 9.53872 15.0628 7.89778C16.7038 6.25683 18.9294 5.33496 21.25 5.33496H30V22.835H21.25C18.9294 22.835 16.7038 21.9131 15.0628 20.2722C13.4219 18.6312 12.5 16.4056 12.5 14.085Z" stroke="#B161D7" stroke-width="2" stroke-linecap="round" stroke-linejoin="round"/>
<path d="M30 5.33496H38.75C39.8991 5.33496 41.0369 5.56129 42.0985 6.00101C43.1601 6.44074 44.1247 7.08526 44.9372 7.89778C45.7497 8.71029 46.3942 9.67488 46.8339 10.7365C47.2737 11.7981 47.5 12.9359 47.5 14.085C47.5 15.2341 47.2737 16.3719 46.8339 17.4335C46.3942 18.4951 45.7497 19.4597 44.9372 20.2722C44.1247 21.0847 43.1601 21.7292 42.0985 22.1689C41.0369 22.6087 39.8991 22.835 38.75 22.835H30V5.33496Z" stroke="#B161D7" stroke-width="2" stroke-linecap="round" stroke-linejoin="round"/>
<path d="M30 31.585C30 30.4359 30.2263 29.2981 30.6661 28.2365C31.1058 27.1749 31.7503 26.2103 32.5628 25.3978C33.3753 24.5853 34.3399 23.9408 35.4015 23.5011C36.4631 23.0613 37.6009 22.835 38.75 22.835C39.8991 22.835 41.0369 23.0613 42.0985 23.5011C43.1601 23.9408 44.1247 24.5853 44.9372 25.3978C45.7497 26.2103 46.3942 27.1749 46.8339 28.2365C47.2737 29.2981 47.5 30.4359 47.5 31.585C47.5 32.7341 47.2737 33.8719 46.8339 34.9335C46.3942 35.9951 45.7497 36.9597 44.9372 37.7722C44.1247 38.5847 43.1601 39.2292 42.0985 39.6689C41.0369 40.1087 39.8991 40.335 38.75 40.335C37.6009 40.335 36.4631 40.1087 35.4015 39.6689C34.3399 39.2292 33.3753 38.5847 32.5628 37.7722C31.7503 36.9597 31.1058 35.9951 30.6661 34.9335C30.2263 33.8719 30 32.7341 30 31.585Z" stroke="#B161D7" stroke-width="2" stroke-linecap="round" stroke-linejoin="round"/>
<path d="M12.5 49.085C12.5 46.7644 13.4219 44.5388 15.0628 42.8978C16.7038 41.2569 18.9294 40.335 21.25 40.335H30V49.085C30 51.4056 29.0781 53.6312 27.4372 55.2722C25.7962 56.9131 23.5706 57.835 21.25 57.835C18.9294 57.835 16.7038 56.9131 15.0628 55.2722C13.4219 53.6312 12.5 51.4056 12.5 49.085Z" stroke="#B161D7" stroke-width="2" stroke-linecap="round" stroke-linejoin="round"/>
<path d="M12.5 31.585C12.5 29.2644 13.4219 27.0388 15.0628 25.3978C16.7038 23.7569 18.9294 22.835 21.25 22.835H30V40.335H21.25C18.9294 40.335 16.7038 39.4131 15.0628 37.7722C13.4219 36.1312 12.5 33.9056 12.5 31.585Z" stroke="#B161D7" stroke-width="2" stroke-linecap="round" stroke-linejoin="round"/>
</svg>
