<svg width="60" height="61" viewBox="0 0 60 61" fill="none" xmlns="http://www.w3.org/2000/svg">
<path d="M45 7.83496C43.0109 7.83496 41.1032 8.62514 39.6967 10.0317C38.2902 11.4382 37.5 13.3459 37.5 15.335V45.335C37.5 47.3241 38.2902 49.2318 39.6967 50.6383C41.1032 52.0448 43.0109 52.835 45 52.835C46.9891 52.835 48.8968 52.0448 50.3033 50.6383C51.7098 49.2318 52.5 47.3241 52.5 45.335C52.5 43.3459 51.7098 41.4382 50.3033 40.0317C48.8968 38.6252 46.9891 37.835 45 37.835H15C13.0109 37.835 11.1032 38.6252 9.6967 40.0317C8.29018 41.4382 7.5 43.3459 7.5 45.335C7.5 47.3241 8.29018 49.2318 9.6967 50.6383C11.1032 52.0448 13.0109 52.835 15 52.835C16.9891 52.835 18.8968 52.0448 20.3033 50.6383C21.7098 49.2318 22.5 47.3241 22.5 45.335V15.335C22.5 13.3459 21.7098 11.4382 20.3033 10.0317C18.8968 8.62514 16.9891 7.83496 15 7.83496C13.0109 7.83496 11.1032 8.62514 9.6967 10.0317C8.29018 11.4382 7.5 13.3459 7.5 15.335C7.5 17.3241 8.29018 19.2318 9.6967 20.6383C11.1032 22.0448 13.0109 22.835 15 22.835H45C46.9891 22.835 48.8968 22.0448 50.3033 20.6383C51.7098 19.2318 52.5 17.3241 52.5 15.335C52.5 13.3459 51.7098 11.4382 50.3033 10.0317C48.8968 8.62514 46.9891 7.83496 45 7.83496Z" stroke="#37A282" stroke-width="2" stroke-linecap="round" stroke-linejoin="round"/>
</svg>
