<svg width="60" height="61" viewBox="0 0 60 61" fill="none" xmlns="http://www.w3.org/2000/svg">
<path d="M42.5 52.835V47.835C42.5 45.1828 41.4464 42.6393 39.5711 40.7639C37.6957 38.8886 35.1522 37.835 32.5 37.835H12.5C9.84783 37.835 7.3043 38.8886 5.42893 40.7639C3.55357 42.6393 2.5 45.1828 2.5 47.835V52.835" stroke="#D860A8" stroke-width="2" stroke-linecap="round" stroke-linejoin="round"/>
<path d="M22.5 27.835C28.0228 27.835 32.5 23.3578 32.5 17.835C32.5 12.3122 28.0228 7.83496 22.5 7.83496C16.9772 7.83496 12.5 12.3122 12.5 17.835C12.5 23.3578 16.9772 27.835 22.5 27.835Z" stroke="#D860A8" stroke-width="2" stroke-linecap="round" stroke-linejoin="round"/>
<path d="M57.5 52.8347V47.8347C57.4984 45.619 56.7609 43.4667 55.4034 41.7155C54.0459 39.9644 52.1453 38.7136 50 38.1597" stroke="#D860A8" stroke-width="2" stroke-linecap="round" stroke-linejoin="round"/>
<path d="M40 8.15991C42.151 8.71066 44.0576 9.96166 45.4191 11.7157C46.7806 13.4697 47.5196 15.627 47.5196 17.8474C47.5196 20.0679 46.7806 22.2251 45.4191 23.9792C44.0576 25.7332 42.151 26.9842 40 27.5349" stroke="#D860A8" stroke-width="2" stroke-linecap="round" stroke-linejoin="round"/>
</svg>
